# xmcd
#
# Track frame offsets:
#	182
#	13720
#	33862
#	51435
#	67710
#	83540
#	98552
#	110740
#	129007
#	142172
#	155942
#	171717
#
# Disc length: 2479 seconds
#
# Revision: 0
# Processed by: cddbd v1.4PL0 Copyright (c) Steve Scherf et al.
# Submitted via: EasyCDDAExtractor 4.6.0.1
#
DISCID=9e09ad0c
DTITLE=Pascal Bruner - Simplement
DYEAR=1997
DGENRE=Blues
TTITLE0=Le petit prince de la banlieu
TTITLE1=De la cour d'école a la cour des grands
TTITLE2=Pour une femme
TTITLE3=Les enfant d'allyday
TTITLE4=Marine
TTITLE5=Le temps qui passe
TTITLE6=Simplement
TTITLE7=D'homme a homme
TTITLE8=Les sullivan ont disparu
TTITLE9=J'me la coule blues
TTITLE10=Ni vue ni connu, J't'embrouille
TTITLE11=Au kabaret la dernierre chance
EXTD=
EXTT0=
EXTT1=
EXTT2=
EXTT3=
EXTT4=
EXTT5=
EXTT6=
EXTT7=
EXTT8=
EXTT9=
EXTT10=
EXTT11=
PLAYORDER=
